ModelForces
version=1
nRows=6
nColumns=94
inDegrees=yes

This file contains the forces exerted on a model during a simulation.

A force is a generalized force, meaning that it can be either a force (N) or a torque (Nm).

Units are S.I. units (second, meters, Newtons, ...)
Angles are in degrees.

endheader 
time	addbrev_l	addlong_l	addmagDist_l	addmagIsch_l	addmagMid_l	addmagProx_l	bflh_l	bfsh_l	edl_l	ehl_l	fdl_l	fhl_l	gaslat_l	gasmed_l	glmax1_l	glmax2_l	glmax3_l	glmed1_l	glmed2_l	glmed3_l	glmin1_l	glmin2_l	glmin3_l	grac_l	iliacus_l	perbrev_l	perlong_l	piri_l	psoas_l	recfem_l	sart_l	semimem_l	semiten_l	soleus_l	tfl_l	tibant_l	tibpost_l	vasint_l	vaslat_l	vasmed_l	addbrev_r	addlong_r	addmagDist_r	addmagIsch_r	addmagMid_r	addmagProx_r	bflh_r	bfsh_r	edl_r	ehl_r	fdl_r	fhl_r	gaslat_r	gasmed_r	glmax1_r	glmax2_r	glmax3_r	glmed1_r	glmed2_r	glmed3_r	glmin1_r	glmin2_r	glmin3_r	grac_r	iliacus_r	perbrev_r	perlong_r	piri_r	psoas_r	recfem_r	sart_r	semimem_r	semiten_r	soleus_r	tfl_r	tibant_r	tibpost_r	vasint_r	vaslat_r	vasmed_r	lumbar_extension	lumbar_bending	lumbar_rotation	arm_flex_l	arm_add_l	arm_rot_l	arm_flex_r	arm_add_r	arm_rot_r	elbow_flex_l	elbow_flex_r	pro_sup_l	pro_sup_r	
          4.20000000	          5.20146600	          4.83767411	          8.59192909	          9.96064023	          7.49396177	          5.54908041	        123.29396086	          2.49092606	         54.89863548	          3.60228685	          4.61442432	         11.83516401	          0.00101759	         -0.00014538	         20.31850155	         51.80438597	        321.62080353	          5.10966128	          7.98371263	         13.26795833	          0.80929399	          1.14243484	          0.00919075	          2.31580400	          1.53011964	          5.18939383	          9.45519961	        157.02394357	          5.09689357	          0.03129217	          1.38292853	          6.17290751	          9.22556980	         18.74913952	         67.92635269	          9.98722832	         29.05026806	         24.57819364	         71.59916957	         37.44959042	          2.35469506	          1.75835145	          1.86754817	          2.24209870	          0.16920503	          0.00055136	          0.01087696	          8.81861103	          0.01299426	          0.01104637	        112.09179452	        166.31019387	          6.22672584	          5.70797134	          5.96446987	          8.64269187	          2.55802339	         15.03561833	          6.60483310	          3.97339620	          6.84144838	          5.88958107	          3.62529292	          1.60298281	         35.26728761	          1.24347604	          2.47623445	        571.60250152	         42.27219658	       1001.14633586	          8.67279968	          2.27593725	          1.99830262	          0.00194558	        213.98667112	        421.89743177	        880.49480940	          4.00463362	          0.06719906	          5.61260722	         12.20201692	         -9.45467753	        -18.61226394	        152.15949823	        -47.45436045	        -47.45154797	         44.48828442	         14.70377455	        -19.47901173	         40.46576685	         14.13077128	         -1.54693828	         -0.59540077	
          4.21000000	          2.88713579	          0.02437988	          8.04916281	          9.68671794	          6.03771613	          4.26728604	        161.20361669	          3.44282843	         56.99420020	          0.09637554	          5.85163004	         12.66565529	          0.05575856	          0.00055187	         18.36803644	         45.58113373	        268.75046991	          7.12505988	          9.70193098	         14.93975366	          1.34676461	          2.00538344	          1.93003085	          2.22990721	          1.59867327	          4.59427726	         16.32651727	         32.90235427	          5.01035236	          1.12023604	          3.05504530	          6.25120262	         21.99911381	         24.78936988	          5.38983356	         13.50124731	         31.32387332	         20.21459396	         58.65682217	         30.82679464	          4.69554897	          3.17135183	          5.18898341	          3.69924541	          2.96535999	          1.19070272	          0.25218454	          4.91423844	         70.03325222	         46.30733527	         70.15015704	         31.88563263	          7.16865877	          9.54803130	          7.23091394	          0.03456282	          5.42809008	          4.38319463	          3.40780528	          3.78702438	          3.53830137	          2.85555732	          1.23122335	          2.21033044	         25.92488944	          3.44507307	          6.63766665	        365.11274379	         33.75232123	        992.87673668	          6.31025519	          0.21660652	          1.44032714	         58.36227319	          0.10244964	        631.06573224	        479.39165703	        223.12525593	       1566.36157758	        375.03517471	         42.33983007	        -56.34490047	         -2.01199515	        108.15684603	        -27.91183882	        -35.08375210	         46.32174060	          8.53956742	        -11.43784624	         27.59123687	          8.47930342	         -1.28996155	         -0.32789432	
          4.22000000	         47.05450105	         92.01582693	         12.74458305	          9.63704095	         48.62574195	         12.35785381	        158.20666926	         52.18150316	         54.80031737	         19.79904258	          5.67284060	         11.86691761	          0.30461154	          0.42634012	         16.39669541	         39.98311029	        224.81114193	          8.20633502	          9.90132550	         14.54246291	          1.69332638	          2.44820015	          3.28689987	          0.07062820	          4.31280477	          8.03076368	          0.10676024	        114.93278592	          0.07066776	          0.12060116	         23.08853595	          7.42305294	         18.99907828	         32.51658088	         28.77962368	          3.96459210	         28.62169501	         18.73614504	         55.21998664	         28.86032490	          5.06775683	          3.83997931	          5.89602486	         10.69820511	          2.98877713	          1.48242498	         16.66660351	          3.76526758	         46.12726611	         24.71041494	         67.86126040	         79.33023160	         12.92845155	         24.11811669	          0.76248765	        767.20710390	         35.46128339	        149.11690167	         33.76639454	         32.42600793	         22.28172800	         15.15160462	          1.07508420	          1.88032966	         21.50940417	          7.53386543	         16.97584632	        318.15390588	         28.65930644	       1017.55892436	          5.12725309	         16.00135908	          2.91034542	         80.34420280	         89.55815179	        469.80018456	        489.41603396	        127.67469936	       2068.48128620	        433.33618859	         62.67203882	        -38.65742047	         13.61558211	         43.80026504	        -15.44799867	        -17.01663938	         13.59971163	         -0.69650449	          0.50063781	         14.09843181	          3.89855570	         -0.76547490	         -0.05815186	
          4.23000000	         43.19713317	         97.10591067	         11.00837258	          9.49969759	         40.47509504	        172.17559165	        154.42676370	         36.03025711	         52.71307922	          0.02235061	          5.69353629	         12.17522103	          0.64777980	          1.06231570	         14.35056386	         34.68984531	        188.95009156	          9.39178084	          9.13710753	         13.12706661	          2.00127483	          2.35157488	          3.37233562	        123.32013434	         34.25006829	          5.41520878	         82.13782883	         93.92927090	        511.02046958	          0.02484344	         27.36430289	         10.14926738	         17.13261569	         40.76500695	          9.63085628	         90.07453243	         28.51052706	         17.35579230	         51.35470819	         26.87139705	          4.67771985	          3.90709697	          4.82039520	          8.46604319	          2.50400836	          1.50178182	         15.42553992	          3.75674324	         21.70081108	         11.00523840	         59.60628250	         77.23542604	         17.21006398	         33.59905064	        522.07824096	        465.30857027	         29.18275294	         58.45097385	          8.21217403	          9.59270743	         16.00191847	         11.64246781	          2.87812009	          1.73889938	         17.91844471	          6.88455656	         14.72163153	        306.53746171	         24.13667160	        646.15378888	          4.41798029	         15.36228407	          2.78796328	          0.04459719	        111.57356840	        218.28145186	        418.41174378	        514.06876423	       3178.32363686	        937.21507059	         71.64871534	        -64.01493739	         11.12976921	         70.23284315	          4.73030836	        -20.52766283	         21.18468316	          0.27330952	         -0.52874550	         22.97563136	          2.54748136	         -1.13300091	         -0.06983229	
          4.24000000	         32.49297401	         68.74823519	          9.62878059	          9.76236185	         33.84186960	        141.22702611	        148.03742298	         78.25410531	         77.55984633	         34.32897452	          5.68763713	         12.90759887	          1.78466469	          3.40325167	         12.96687851	         31.09467540	        162.18838688	          9.93726228	          9.80113945	         13.08829980	          2.01782779	          2.53945538	          3.64711123	        105.35476291	         25.45251990	         15.10817372	         52.45672743	         90.18728858	        409.73559360	        114.52656523	         51.83338606	         14.22062627	         15.49367546	         61.16979924	         13.89053734	         81.61434636	         28.29890842	         16.42359694	         48.84083118	         25.55462213	          4.44582058	          3.81432854	          3.96144490	          6.67373722	          2.29869071	          1.38656921	         15.37579526	          3.98974360	         18.07326621	         10.05900235	         52.49908350	         74.13241090	         16.73938708	         30.08112742	        425.81516230	        966.39633991	         24.63780023	        317.19867188	        244.90250026	        397.76624630	         27.22127641	         45.01289765	         14.12596003	          1.87086693	         14.44054662	          5.87096373	         15.79310833	        327.15892497	         19.84194429	        919.04937972	          3.79263523	         15.31628087	          2.74105945	        826.80537717	        120.61343353	        167.18927695	        336.32527908	        782.04257295	       3446.70689379	       1341.25080808	         98.36387872	        -83.60304938	          5.80180314	         89.94780974	         17.05604918	        -22.52374790	         37.25195572	          7.11984577	         -4.86065126	         28.52335421	          2.88782205	         -1.30615281	         -0.17107536	
          4.25000000	         25.43435430	         51.66561899	          8.44393892	          9.90108103	         28.93124876	        114.08805811	        138.18263184	         69.77963147	         86.78025448	          0.01100955	          5.22567762	         13.58452202	          3.71813148	          7.88293382	         13.40284558	         23.92608911	        115.80527279	          9.69852081	         10.05443658	         13.66172919	          1.78045703	          2.52308117	          4.06742419	         96.73364263	         18.68391773	         10.14776138	         46.08953194	         82.93731026	        292.75004712	          0.01458754	         64.22610144	         20.97570755	         14.02429295	         89.91839812	          8.41812968	        121.17937650	         26.11114463	         15.30237643	         45.74344662	         23.96172879	          4.42415078	          3.93376973	          3.97880194	          5.44045478	          2.22924056	          1.31268373	         14.20005122	          4.02102436	         15.86924683	          9.76583970	         45.10345598	         55.33967802	         16.83181427	         39.35283597	        501.47423429	        868.81321049	         20.88737711	        246.55910621	        211.45443922	        362.96783392	         24.89206943	         38.12146423	         13.49064954	          1.99316204	         11.76828933	          5.52258967	          0.00605107	        383.62883849	         16.84131654	       1179.50805033	          3.20463089	         16.29454591	          2.49687581	       1623.41471759	        119.37396835	        159.83707402	        280.70789267	        924.68725572	       2678.88660621	       1453.01446521	         83.21631391	        -80.90129265	          2.81185225	         72.32410694	         19.41539758	        -15.02873411	         44.44773464	         13.42825351	         -7.98743227	         24.26237233	          2.89014668	         -0.98073674	         -0.22631547	
